<svg xmlns="http://www.w3.org/2000/svg" width="96" height="96" viewBox="0 0 16 16"><defs><filter id="b" width="1.09" height="1.088" x="-.041" y="-.04" style="color-interpolation-filters:sRGB"><feFlood flood-color="#93000B" flood-opacity="1" result="flood"/><feGaussianBlur in="SourceGraphic" result="blur" stdDeviation=".2"/><feOffset dx=".1" dy=".1" in="blur" result="offset"/><feComposite in="flood" in2="offset" operator="out" result="comp1"/><feComposite in="comp1" in2="SourceGraphic" operator="atop" result="comp2"/></filter><filter id="a" width="1.033" height="1.033" x="-.015" y="-.015" style="color-interpolation-filters:sRGB"><feFlood flood-color="#6F0008" flood-opacity="1" result="flood"/><feGaussianBlur in="SourceGraphic" result="blur" stdDeviation=".1"/><feOffset dx=".05" dy=".05" in="blur" result="offset"/><feComposite in="flood" in2="offset" operator="in" result="comp1"/><feComposite in="SourceGraphic" in2="comp1" result="comp2"/></filter></defs><circle cx="8" cy="8" r="8" fill="#da0010" style="paint-order:markers fill stroke;filter:url(#a)"/><path fill="#fff" d="M2.81 12.565c.282.33.568.571.908.803a5.04 5.04 0 0 0 3.302.828c1.04-.098 2.248-.57 2.586-1.78.221-.715.235-1.485.178-2.214-.064-.834-.212-1.45-.386-2.254-.122-.674-.438-1.868-.105-2.488 1.203.09 2.505.096 3.577-.638.692-.435 1.017-1.663.422-2.36-.46-.58-1.412-.235-1.468.57-.33.4-.99.219-1.452.206-1.7-.208-3.387-.687-5.107-.56-1.14-.003-2.433.318-3.124 1.476-.592.914-.396 2.316.386 2.992l1.26-1.05c-.584-.686.248-1.381.842-1.32.924-.034 1.686.156 2.595.329-.243.78-.35 1.798-.37 2.408-.063 1.949.695 2.782.69 3.722-.003.476-.366 1.63-3.109.487.112-1.457-1.28-1.779-1.869-.779-.154.247-.177.61-.112.895.068.3.188.53.357.727z" aria-label="T" style="display:inline;stroke:none;stroke-width:2.04607;stroke-dasharray:none;stroke-opacity:1;paint-order:stroke fill markers;filter:url(#b)" transform="matrix(.9038 0 0 .97092 .646 .04)"/></svg>
